<svg width="332" height="77" viewBox="0 0 332 77" fill="none" xmlns="http://www.w3.org/2000/svg">
<g clip-path="url(#clip0_114_21132)">
<path d="M133.071 57.5244C129.388 57.5244 126.209 56.6698 123.535 54.9605C120.854 53.2512 118.923 50.921 117.731 47.9636C116.544 45.0123 116.267 41.7168 116.907 38.0892C117.558 34.4124 118.991 31.1046 121.217 28.1779C123.442 25.2513 126.197 22.9333 129.48 21.2179C132.763 19.5086 136.244 18.654 139.92 18.654C142.822 18.654 145.429 19.2135 147.747 20.3264C150.065 21.4392 151.922 23.0378 153.318 25.1037L146.72 30.7787C145.86 29.4814 144.722 28.5099 143.308 27.8643C141.894 27.2188 140.277 26.8929 138.463 26.8929C136.336 26.8929 134.374 27.3725 132.573 28.3316C130.771 29.2908 129.271 30.6004 128.072 32.2543C126.873 33.9144 126.074 35.8573 125.687 38.083C125.305 40.2596 125.416 42.1902 126.025 43.8749C126.633 45.5595 127.673 46.8815 129.136 47.8406C130.599 48.7998 132.395 49.2794 134.516 49.2794C136.33 49.2794 138.057 48.9535 139.699 48.3079C141.341 47.6623 142.822 46.6909 144.138 45.3935L148.737 51.0685C146.61 53.1406 144.193 54.733 141.482 55.852C138.771 56.9649 135.967 57.5244 133.065 57.5244H133.071Z" fill="#0D7A93"/>
<path d="M152.161 56.7435L158.74 19.4287H167.293L160.714 56.7435H152.161ZM164.372 35.9926L161.679 34.5169C162.509 29.8011 164.237 25.9768 166.85 23.0501C169.463 20.1234 172.9 18.6601 177.149 18.6601C179.012 18.6601 180.641 18.9983 182.024 19.6685C183.408 20.3448 184.613 21.4331 185.646 22.9333L179.036 28.6882C178.489 27.9627 177.831 27.4462 177.057 27.1327C176.282 26.8191 175.353 26.6654 174.265 26.6654C171.88 26.6654 169.777 27.4155 167.963 28.9219C166.143 30.4282 164.95 32.7831 164.385 35.9926H164.372Z" fill="#0D7A93"/>
<path d="M256.378 52.0831L282.146 24.0954H292.174L266.406 52.0831H256.378ZM255.554 56.7436L256.378 52.0769L264.696 48.9658H287.317L285.945 56.7374H255.554V56.7436ZM262.157 27.2065L263.528 19.4349H292.992L292.168 24.1015L283.843 27.2126H262.157V27.2065Z" fill="#0D7A93"/>
<path d="M297.621 18.8815V18.4327H301.36V18.8815H297.621ZM299.245 23.0379V18.5679H299.736V23.0379H299.245Z" fill="#0D7A93"/>
<path d="M302.183 23.0379V18.4389H302.54L304.526 21.6975H304.274L306.26 18.4389H306.616V23.0379H306.124V19.2935L306.235 19.3242L304.575 22.048H304.224L302.564 19.3242L302.675 19.2935V23.0379H302.183Z" fill="#0D7A93"/>
<path d="M235.277 57.3153C227.425 57.3153 222.617 51.7571 219.303 46.9121L218.006 45.0123L216.069 46.9429C210.658 52.3289 204.571 57.3153 196.72 57.3153C186.181 57.3153 179.117 48.7382 180.974 38.1998C182.83 27.6614 192.92 19.0843 203.458 19.0843C211.31 19.0843 215.638 24.0707 219.149 29.4567L220.403 31.3873L222.371 29.4875C227.394 24.6425 234.164 19.0843 242.009 19.0843C252.548 19.0843 259.612 27.6614 257.755 38.1998C255.898 48.7382 245.809 57.3153 235.27 57.3153H235.277ZM240.552 27.3908C235.707 27.3908 230.573 31.9468 225.74 36.8717L224.443 38.1937L225.273 39.5156C228.366 44.4405 231.895 48.9965 236.74 48.9965C242.698 48.9965 248.403 44.1515 249.449 38.1937C250.5 32.2358 246.504 27.3908 240.546 27.3908H240.552ZM202.001 27.3908C196.043 27.3908 190.344 32.2358 189.292 38.1937C188.241 44.1515 192.237 48.9965 198.195 48.9965C203.182 48.9965 207.529 44.877 212.699 39.491L213.954 38.1875L213.161 36.884C209.89 31.498 206.988 27.3847 202.007 27.3847L202.001 27.3908Z" fill="#0D7A93"/>
<path style="mix-blend-mode:multiply" d="M217.864 27.557C218.761 28.799 219.591 30.0963 220.391 31.4059L213.947 38.1938C212.927 36.4784 211.937 34.8491 210.947 33.4349L217.87 27.5509L217.864 27.557Z" fill="url(#paint0_linear_114_21132)"/>
<path style="mix-blend-mode:multiply" d="M229.423 45.1597L222.512 51.0376C220.809 49.1562 219.352 47.0534 218.036 44.9814L224.449 38.1935C225.931 40.6345 227.56 43.1615 229.417 45.1659L229.423 45.1597Z" fill="url(#paint1_linear_114_21132)"/>
<path d="M68.1251 -0.000366211C61.8229 -0.000366211 56.7197 5.10899 56.7197 11.4111C56.7197 12.3395 56.8304 13.2434 57.0456 14.1103C57.2546 14.9834 57.5682 15.8196 57.9679 16.6066L66.8462 34.3633C67.375 35.4208 68.8813 35.4208 69.404 34.3633L78.2823 16.6066L78.4299 16.3114C78.7619 15.6167 79.0263 14.8789 79.2107 14.1103C79.4198 13.2495 79.5304 12.3395 79.5304 11.4111C79.5304 5.10899 74.4211 -0.000366211 68.1189 -0.000366211L68.1251 -0.000366211ZM68.1251 17.0984C65.9608 17.0984 64.0733 15.8872 63.1141 14.1042C63.0957 14.0673 63.0772 14.0304 63.0588 13.9996C62.8559 13.6123 62.7022 13.1942 62.5976 12.7515C62.4931 12.3211 62.4378 11.8723 62.4378 11.405C62.4378 8.25699 64.9832 5.71153 68.1312 5.71153C71.2792 5.71153 73.8247 8.25699 73.8247 11.405C73.8247 11.8661 73.7693 12.3211 73.6648 12.7515C73.5726 13.1388 73.4435 13.5016 73.2775 13.8459L73.2037 13.9935C73.1852 14.0304 73.1668 14.0673 73.1484 14.098C72.1892 15.8811 70.3016 17.0923 68.1374 17.0923L68.1251 17.0984Z" fill="#EA4337"/>
<path d="M68.1251 76.4001C74.4272 76.4001 79.5304 71.2907 79.5304 64.9886C79.5304 64.0602 79.4198 63.1563 79.2046 62.2894C78.9955 61.4163 78.682 60.5802 78.2823 59.7932L69.404 42.0365C68.8752 40.9789 67.3688 40.9789 66.8462 42.0365L57.9679 59.7932L57.8203 60.0883C57.4883 60.7831 57.2239 61.5209 57.0394 62.2894C56.8304 63.1502 56.7197 64.0602 56.7197 64.9886C56.7197 71.2907 61.8291 76.4001 68.1312 76.4001H68.1251ZM68.1251 59.3013C70.2893 59.3013 72.1769 60.5125 73.1361 62.2956C73.1545 62.3325 73.173 62.3693 73.1914 62.4001C73.3943 62.7874 73.548 63.2055 73.6525 63.6482C73.7571 64.0786 73.8124 64.5275 73.8124 64.9947C73.8124 68.1427 71.2669 70.6882 68.1189 70.6882C64.9709 70.6882 62.4255 68.1427 62.4255 64.9947C62.4255 64.5336 62.4808 64.0786 62.5853 63.6482C62.6776 63.2609 62.8067 62.8981 62.9727 62.5538L63.0465 62.4062C63.0649 62.3694 63.0834 62.3325 63.1018 62.3017C64.061 60.5187 65.9485 59.3074 68.1128 59.3074L68.1251 59.3013Z" fill="#5AB34C"/>
<path d="M35.04 19.103C31.892 24.5567 33.7611 31.5352 39.2148 34.6832C40.0202 35.1504 40.8564 35.507 41.711 35.753C42.5718 36.0112 43.4572 36.1526 44.3364 36.2018L64.159 37.3946C65.3395 37.4684 66.0896 36.1649 65.4378 35.175L54.4998 18.605L54.3153 18.3283C53.8788 17.6889 53.3746 17.0986 52.8028 16.5514C52.1572 15.9366 51.4317 15.3894 50.6263 14.9221C45.1664 11.7741 38.1941 13.6432 35.04 19.0969V19.103ZM49.8454 27.6493C48.7633 29.5246 46.7712 30.5514 44.7484 30.4961C44.7053 30.4961 44.6684 30.4961 44.6254 30.4961C44.1888 30.4715 43.7462 30.3977 43.3158 30.2747C42.8915 30.1518 42.4734 29.9735 42.0676 29.7398C39.3439 28.1658 38.4093 24.6858 39.9833 21.962C41.5573 19.2383 45.0373 18.3037 47.7611 19.8777C48.1607 20.1114 48.5235 20.3819 48.8432 20.6893C49.1322 20.9598 49.3843 21.255 49.5995 21.5747L49.6917 21.71C49.7163 21.7407 49.7347 21.7776 49.7532 21.8145C50.8169 23.536 50.9214 25.7741 49.8393 27.6555L49.8454 27.6493Z" fill="#0D7A93"/>
<path d="M101.209 57.3033C104.357 51.8496 102.488 44.8711 97.0344 41.7231C96.229 41.2559 95.3928 40.8993 94.5382 40.6533C93.6774 40.3951 92.792 40.2537 91.9128 40.2045L72.0902 39.0117C70.9097 38.9379 70.1596 40.2414 70.8113 41.2313L81.7494 57.8013L81.9339 58.078C82.3704 58.7174 82.8746 59.3077 83.4464 59.8549C84.092 60.4697 84.8175 61.0169 85.6229 61.4842C91.0828 64.6322 98.0551 62.7631 101.209 57.3094V57.3033ZM86.3976 48.7508C87.4798 46.8755 89.4719 45.8487 91.4947 45.9041C91.5377 45.9041 91.5746 45.9041 91.6177 45.9041C92.0542 45.9287 92.4969 46.0025 92.9273 46.1254C93.3515 46.2484 93.7696 46.4267 94.1754 46.6603C96.8992 48.2343 97.8337 51.7144 96.2597 54.4381C94.6857 57.1619 91.2057 58.0964 88.482 56.5224C88.0823 56.2888 87.7196 56.0183 87.3998 55.7108C87.1109 55.4403 86.8588 55.1452 86.6436 54.8255L86.5514 54.6902C86.5268 54.6595 86.5083 54.6226 86.4899 54.5857C85.4262 52.8641 85.3217 50.6261 86.4038 48.7447L86.3976 48.7508Z" fill="#A7CE4B"/>
<path d="M35.0403 57.3032C38.1883 62.7569 45.1668 64.626 50.6266 61.478C51.4321 61.0107 52.1576 60.4635 52.8032 59.8487C53.4549 59.2277 54.0206 58.5391 54.5001 57.8013L65.4382 41.2312C66.0899 40.2475 65.3337 38.944 64.1593 39.0116L44.3368 40.1983L44.0109 40.2167C43.2423 40.2782 42.4738 40.4196 41.7175 40.641C40.8629 40.893 40.0267 41.2497 39.2213 41.7108C33.7615 44.8588 31.8923 51.8373 35.0465 57.2971L35.0403 57.3032ZM49.8519 48.7507C50.934 50.626 50.8295 52.8641 49.7658 54.5856C49.7474 54.6225 49.7228 54.6532 49.7044 54.6901C49.4646 55.059 49.1817 55.4034 48.8559 55.7108C48.5362 56.0182 48.1734 56.2887 47.7737 56.5224C45.05 58.0964 41.57 57.1618 39.996 54.4381C38.422 51.7143 39.3565 48.2343 42.0803 46.6603C42.4799 46.4266 42.898 46.2483 43.3284 46.1254C43.7096 46.0147 44.0908 45.9409 44.472 45.9102L44.638 45.8979C44.6749 45.8979 44.718 45.8979 44.761 45.8979C46.7838 45.8364 48.7759 46.8632 49.8581 48.7446L49.8519 48.7507Z" fill="#1EA597"/>
<path d="M101.203 19.0969C98.0555 13.6432 91.077 11.7741 85.6172 14.9221C84.8117 15.3894 84.0862 15.9366 83.4406 16.5514C82.7889 17.1724 82.2232 17.861 81.7436 18.5988L70.8056 35.1689C70.1538 36.1526 70.9101 37.4561 72.0845 37.3885L91.907 36.2018L92.2329 36.1834C93.0014 36.1219 93.77 35.9805 94.5262 35.7591C95.3809 35.507 96.2171 35.1504 97.0225 34.6893C102.482 31.5413 104.351 24.5628 101.197 19.103L101.203 19.0969ZM86.398 27.6493C85.3159 25.7741 85.4204 23.536 86.4841 21.8145C86.5025 21.7776 86.5271 21.7468 86.5456 21.71C86.7854 21.341 87.0682 20.9967 87.3941 20.6893C87.7138 20.3819 88.0765 20.1114 88.4762 19.8777C91.1999 18.3037 94.68 19.2383 96.254 21.962C97.828 24.6858 96.8934 28.1658 94.1696 29.7398C93.77 29.9735 93.3519 30.1518 92.9215 30.2747C92.5403 30.3854 92.1591 30.4592 91.7779 30.4899L91.6119 30.5022C91.575 30.5022 91.532 30.5022 91.4889 30.5022C89.4661 30.5637 87.474 29.5369 86.3919 27.6555L86.398 27.6493Z" fill="#FFAD34"/>
</g>
<defs>
<linearGradient id="paint0_linear_114_21132" x1="217.821" y1="28.012" x2="232.313" y2="45.9593" gradientUnits="userSpaceOnUse">
<stop offset="0.11" stop-color="white"/>
<stop offset="0.61" stop-color="#878787"/>
<stop offset="0.95" stop-color="white"/>
</linearGradient>
<linearGradient id="paint1_linear_114_21132" x1="217.87" y1="27.9748" x2="232.362" y2="45.916" gradientUnits="userSpaceOnUse">
<stop offset="0.11" stop-color="white"/>
<stop offset="0.61" stop-color="#878787"/>
<stop offset="0.95" stop-color="white"/>
</linearGradient>
<clipPath id="clip0_114_21132">
<rect width="273.101" height="76.4005" fill="white" transform="translate(33.5096 -0.00012207)"/>
</clipPath>
</defs>
</svg>
