<svg width="14" height="14" viewBox="0 0 14 14" fill="none" xmlns="http://www.w3.org/2000/svg">
<g clip-path="url(#clip0_34_7964)">
<path d="M13.1542 5.85492L13.979 6.67975L8.75 11.9082L5.83333 8.9915L1.9915 12.8333H4.08333V14H1.16667C0.52325 14 0 13.4767 0 12.8333V9.91667H1.16667V12.0085L5.83333 7.34183L8.75 10.2585L13.1542 5.85492ZM12.8333 0H9.91667V1.16667H12.0085L8.16667 5.0085L5.25 2.09183L0.04375 7.29808L0.868583 8.12292L5.25 3.7415L8.16667 6.65817L12.8333 1.9915V4.08333H14V1.16667C14 0.52325 13.4767 0 12.8333 0Z" fill="#13B549"/>
</g>
<defs>
<clipPath id="clip0_34_7964">
<rect width="14" height="14" fill="white"/>
</clipPath>
</defs>
</svg>
